# Blender 4.0.2
# www.blender.org
mtllib world-oasis-organic-water-obj.mtl
o world-oasis.013
v 5.462351 -0.728864 -3.422556
v 3.643703 -0.728865 -7.283928
v 0.117144 -0.728866 -9.356159
v -3.973073 -0.728865 -8.249122
v -5.713635 -0.728864 -3.395222
v -3.635043 -0.728863 1.040626
v 1.979509 -0.728863 0.743147
vn -0.0000 1.0000 -0.0000
vt 0.230653 0.485064
vt 0.002757 0.381315
vt 0.003144 0.188350
vt 0.110303 0.035878
vt 0.303569 0.002757
vt 0.471929 0.168095
vt 0.471929 0.389564
s 1
usemtl water
f 7/1/1 1/2/1 2/3/1 3/4/1 4/5/1 5/6/1 6/7/1
