# Blender 4.0.2
# www.blender.org
mtllib world-beach-organic-land-obj.mtl
o Island_Grass.016
v 2.884215 -2.270859 -10.303187
v -0.588822 -2.683528 -9.269601
v -3.733864 -2.502620 -9.499442
v -6.151788 -2.486680 -7.780659
v -8.790590 -2.378571 -4.652798
v -8.758387 -2.589462 -0.719412
v -10.694540 -3.177600 4.820167
v -7.996159 -2.889475 6.651818
v -6.189827 -2.495394 8.765817
v -3.860742 -2.241687 10.208929
v -0.520554 -2.303029 10.199602
v 4.374963 -2.855074 8.058526
v 6.181814 -2.663275 7.642156
v 8.253544 -2.466156 5.902726
v 9.633606 -2.053868 2.539186
v 10.271339 -1.972614 -0.100123
v 10.037251 -2.040184 -2.840847
v 7.880722 -2.110026 -8.276825
v 9.690817 -2.004030 -6.208374
v 5.532104 -2.225391 -9.690188
v 2.945681 -1.419245 -11.157142
v -0.793993 -1.822002 -10.099854
v -4.185589 -1.641094 -10.225041
v -6.841962 -1.623581 -8.336756
v -9.582414 -1.517045 -4.973085
v -9.612639 -1.760573 -0.783827
v -11.529831 -2.263075 5.012301
v -8.728199 -2.073385 7.087211
v -6.739041 -1.656891 9.417866
v -4.179471 -1.384263 11.002212
v -0.578695 -1.392822 11.063113
v 4.583845 -1.971746 8.893676
v 6.636032 -1.814171 8.365906
v 8.903267 -1.676762 6.437897
v 10.415485 -1.299160 2.838653
v 11.109377 -1.244732 -0.064478
v 10.851759 -1.353144 -3.072268
v 8.423197 -1.351609 -8.940516
v 10.406252 -1.248959 -6.671610
v 5.853102 -1.417700 -10.485856
v 8.446362 0.273042 -8.903237
v 5.874631 0.249314 -10.449668
v 0.393146 0.248652 -10.332566
v -0.772473 -0.520452 -10.063682
v -4.164067 -0.459817 -10.188869
v -6.820440 -1.094533 -8.300583
v -9.560892 -1.058824 -4.936912
v -9.591513 -1.142503 -0.748575
v -11.508970 -1.304262 5.046923
v -8.706757 -1.241464 7.123195
v -6.717431 -1.104594 9.454546
v -4.157965 -1.013641 11.038753
v -0.557209 -0.375014 11.100173
v 2.031298 0.064086 9.718595
v 6.657554 0.116284 8.402079
v 8.924726 0.162156 6.473953
v 10.437611 0.290332 2.875867
v 11.132835 0.310871 -0.025812
v 10.877241 0.276577 -3.032389
v 10.430185 0.308186 -6.633838
v -5.442666 -1.096547 8.002490
v -1.001813 -0.470704 7.783769
v 2.267609 0.134371 5.893016
v 7.634748 0.285303 4.603792
v -7.905787 -1.042950 4.900827
v -2.758287 -0.549945 4.592407
v 1.388455 0.340449 2.403076
v 7.584225 0.548415 1.268172
v -6.263997 -1.124563 -1.532961
v -1.749076 -0.511961 -1.497950
v 1.620301 0.527400 -2.547570
v 7.645837 0.579030 -3.093137
v -6.230607 -1.045697 -6.595385
v -1.782027 -0.487424 -6.539449
v 0.911121 0.364146 -7.399512
v 7.101971 0.392216 -7.679665
v 2.884023 -2.280771 -10.303541
v 3.859137 -11.270457 -3.644479
v -0.588824 -2.683528 -9.269598
v 4.608869 -11.270456 -2.782011
v -3.733865 -2.502620 -9.499439
v 5.055389 -11.270456 -1.730074
v -6.151791 -2.486680 -7.780656
v 5.154990 -11.270456 -0.591641
v -8.790593 -2.378571 -4.652795
v -8.756640 -2.562803 -0.715308
v 4.560422 -11.744347 1.902240
v -11.008190 -2.188239 5.063782
v -8.094776 -2.447297 6.860462
v 2.394939 -11.270456 2.697660
v -6.187068 -2.490458 8.765471
v -3.916247 -1.871613 10.315228
v 0.143012 -11.270456 2.540190
v 1.511297 -15.653961 -0.846433
v -1.552655 -12.425283 1.588552
v -0.636662 -2.018024 10.351867
v 4.337502 -2.624477 8.129912
v 6.178865 -2.644703 7.636412
v -2.458502 -11.765945 -0.993487
v 8.424852 -1.891401 6.015754
v -1.796682 -11.222214 -2.366698
v -1.078833 -12.030074 -3.737331
v 10.427475 -1.713750 -0.315297
v 10.000406 -1.901661 -3.213274
v -0.205109 -11.191382 -4.046295
v 7.402854 -1.871667 -7.633090
v 9.766933 -1.561985 -6.306200
v 4.608869 -11.270456 -2.782011
v 3.859137 -11.270457 -3.644479
v 5.055389 -11.270456 -1.730074
v 5.249858 -11.945103 0.362349
v 3.915612 -11.158414 3.315595
v 3.759320 -10.170470 3.862482
v 1.032612 -10.565833 3.702905
v -1.996579 -10.476600 3.054749
v -1.927136 -11.134697 0.772041
v -2.474599 -9.921339 -0.811748
v -0.900028 -10.111831 -4.194929
v 1.552752 -11.424453 -4.745126
v 3.288810 -11.569285 -4.554723
v 6.057600 -8.000794 -3.685351
v 5.497408 -8.564561 -5.359365
v 6.713305 -7.978350 -2.140299
v 7.010609 -8.577269 0.076377
v 5.616905 -8.016336 2.597895
v 4.351817 -8.028451 3.699352
v 2.808069 -8.028451 4.354635
v 1.137381 -8.028451 4.500802
v -0.496705 -8.028451 4.123543
v -1.934234 -8.028451 3.259788
v -3.034490 -8.028450 1.994087
v -3.689772 -8.028450 0.450337
v -2.718515 -8.684321 -5.179774
v 0.320357 -8.782695 -6.504636
v 4.059887 -8.564561 -6.223116
v 6.057600 -8.000794 -3.685351
v 5.831162 -7.020194 -5.143643
v 6.713305 -7.978350 -2.140299
v 7.096538 -6.822311 1.847191
v 6.897388 -6.643113 2.150496
v 5.616905 -8.016336 2.597895
v 4.351817 -8.028451 3.699352
v 1.651801 -7.036263 5.083007
v 1.137381 -8.028451 4.500802
v -0.496705 -8.028451 4.123543
v -1.934234 -8.028451 3.259788
v -3.034490 -8.028450 1.994087
v -5.612544 -6.327502 1.173881
v -3.182150 -8.500244 -2.814689
v -5.014206 -6.475271 -5.120977
v -1.329221 -8.028451 -5.392221
v 1.501609 -6.221270 -8.522816
v 2.458216 -7.356424 -7.179575
v 9.726273 -1.844187 2.374905
v 6.660225 -3.739879 6.744504
v -0.012954 -3.569404 7.490167
v -3.700205 -3.882585 6.715345
v -7.042659 -3.965730 1.705749
v -6.470283 -3.627655 -4.238831
v -3.282067 -3.944098 -8.578454
v 2.928288 -3.771736 -9.095758
v 5.548414 -2.075580 -9.686557
vn -0.5673 -0.6946 -0.4424
vn -0.5500 -0.7119 -0.4368
vn -0.5452 -0.7164 -0.4352
vn 0.6481 -0.0218 0.7612
vn 0.6483 -0.0221 0.7611
vn 0.6480 -0.0215 0.7614
vn 0.2288 -0.6985 0.6781
vn 0.2304 -0.7010 0.6749
vn 0.2300 -0.6930 0.6833
vn -0.7271 -0.6850 -0.0451
vn 0.4763 -0.7208 0.5036
vn 0.4896 -0.7081 0.5089
vn 0.4962 -0.7015 0.5115
vn -0.6774 -0.6714 -0.3006
vn -0.6553 -0.6925 -0.3016
vn -0.6521 -0.6955 -0.3018
vn 0.6793 -0.7026 0.2117
vn -0.4649 -0.5674 0.6796
vn 0.3568 -0.7466 -0.5615
vn 0.6424 -0.7533 0.1411
vn 0.6547 -0.7431 0.1381
vn 0.6603 -0.7384 0.1368
vn -0.4772 -0.6862 0.5490
vn -0.4717 -0.6989 0.5376
vn -0.4691 -0.7047 0.5322
vn 0.6562 -0.7541 -0.0290
vn 0.6552 -0.7546 -0.0369
vn -0.3176 -0.7037 0.6355
vn -0.3177 -0.7029 0.6363
vn 0.1556 -0.7239 -0.6721
vn -0.0026 -0.6552 -0.7555
vn 0.0090 -0.6832 -0.7302
vn 0.0129 -0.6923 -0.7215
vn 0.6828 -0.7233 -0.1025
vn 0.6368 -0.7678 -0.0709
vn 0.6332 -0.7705 -0.0741
vn -0.0114 -0.6871 0.7265
vn -0.0133 -0.6833 0.7300
vn -0.0140 -0.6819 0.7314
vn -0.1245 -0.7024 -0.7008
vn -0.1243 -0.6994 -0.7039
vn -0.1242 -0.6981 -0.7051
vn -0.4148 -0.7035 -0.5770
vn 0.5220 -0.7427 -0.4195
vn 0.5183 -0.7457 -0.4186
vn 0.5172 -0.7467 -0.4183
vn 0.2257 -0.6629 0.7139
vn 0.2200 -0.6624 0.7161
vn -0.9492 0.0358 -0.3126
vn -0.9495 0.0456 -0.3105
vn -0.9495 0.0501 -0.3097
vn 0.5152 0.0122 -0.8570
vn 0.5151 0.0117 -0.8571
vn 0.5152 0.0123 -0.8570
vn 0.9221 -0.0201 0.3864
vn 0.9223 -0.0202 0.3859
vn 0.9219 -0.0183 0.3870
vn -0.5948 -0.0178 0.8037
vn -0.5945 -0.0177 0.8039
vn -0.5944 -0.0161 0.8040
vn 0.0248 0.1720 -0.9848
vn 0.0917 0.3851 -0.9183
vn -0.0214 0.0220 -0.9995
vn 0.9724 -0.0211 0.2323
vn 0.9724 -0.0183 0.2325
vn 0.9723 -0.0190 0.2328
vn -0.7602 -0.0123 0.6496
vn -0.7599 -0.0096 0.6500
vn -0.7599 -0.0085 0.6500
vn -0.2708 0.0494 -0.9614
vn -0.2719 0.0448 -0.9613
vn -0.2664 0.0676 -0.9615
vn 0.9963 -0.0154 -0.0849
vn 0.9964 -0.0111 -0.0845
vn 0.9963 -0.0129 -0.0846
vn -0.5241 -0.0516 0.8501
vn -0.5233 -0.0374 0.8513
vn -0.5232 -0.0361 0.8514
vn 0.0376 0.0293 -0.9989
vn 0.0381 0.0277 -0.9989
vn 0.0383 0.0271 -0.9989
vn 0.9923 -0.0134 -0.1231
vn 0.9923 -0.0113 -0.1234
vn 0.9923 -0.0125 -0.1232
vn -0.0027 -0.0869 0.9962
vn -0.0158 -0.0404 0.9991
vn 0.0004 -0.0981 0.9952
vn -0.5877 0.0694 -0.8061
vn -0.5801 0.0403 -0.8135
vn -0.5789 0.0355 -0.8147
vn 0.7528 0.0044 -0.6582
vn 0.7528 0.0040 -0.6582
vn 0.4509 0.0159 0.8925
vn 0.4079 0.1061 0.9068
vn 0.4760 -0.0420 0.8784
vn -0.7720 0.0851 -0.6300
vn -0.7720 0.0753 -0.6312
vn -0.7720 0.0746 -0.6313
vn 0.2685 -0.0351 0.9627
vn 0.2655 -0.0428 0.9632
vn 0.2536 -0.0728 0.9646
vn -0.9994 0.0354 -0.0065
vn -0.9989 0.0461 -0.0047
vn -0.9989 0.0473 -0.0045
vn -0.0252 0.9995 -0.0166
vn -0.0621 0.9958 0.0666
vn -0.0722 0.9974 0.0040
vn -0.0007 0.9998 0.0200
vn -0.0781 0.9969 -0.0015
vn -0.1388 0.9901 0.0197
vn -0.0155 0.9996 -0.0233
vn -0.1500 0.9884 0.0233
vn -0.1542 0.9879 0.0153
vn -0.1745 0.9846 -0.0050
vn -0.1369 0.9893 0.0508
vn -0.1374 0.9896 0.0426
vn -0.0943 0.9954 0.0168
vn -0.0975 0.9945 -0.0375
vn -0.0943 0.9954 0.0170
vn -0.1345 0.9909 0.0057
vn -0.1344 0.9909 -0.0099
vn -0.1344 0.9909 -0.0011
vn -0.0588 0.9972 0.0459
vn -0.0589 0.9972 0.0460
vn -0.1251 0.9881 0.0891
vn -0.1702 0.9854 -0.0056
vn -0.1493 0.9871 0.0577
vn -0.2256 0.9737 -0.0313
vn -0.2929 0.9561 0.0066
vn -0.3122 0.9493 -0.0374
vn -0.3297 0.9384 -0.1032
vn -0.3147 0.9480 -0.0474
vn -0.0062 0.9998 0.0180
vn -0.0131 0.9980 0.0622
vn -0.0269 0.9990 0.0365
vn -0.1643 0.9860 0.0281
vn -0.1261 0.9916 0.0299
vn -0.0121 0.9992 -0.0393
vn -0.0067 0.9988 -0.0485
vn 0.0225 0.9985 0.0502
vn 0.0462 0.9959 0.0779
vn 0.0697 0.9975 0.0080
vn 0.0932 0.9956 -0.0028
vn 0.0414 0.9978 -0.0517
vn -0.5715 -0.6903 -0.4438
vn 0.6484 -0.0225 0.7609
vn 0.2287 -0.6986 0.6780
vn 0.2279 -0.6994 0.6775
vn 0.2295 -0.6977 0.6786
vn -0.6947 -0.7185 -0.0328
vn 0.4701 -0.7266 0.5010
vn -0.7327 -0.6126 -0.2963
vn -0.7354 -0.6095 -0.2961
vn -0.7123 -0.6354 -0.2980
vn 0.6482 -0.7410 0.1751
vn -0.3656 -0.6717 0.6443
vn 0.3829 -0.7210 -0.5775
vn 0.6508 -0.7463 0.1392
vn 0.6459 -0.7505 0.1403
vn 0.6631 -0.7361 0.1362
vn -0.4632 -0.7177 0.5200
vn -0.4654 -0.7128 0.5246
vn -0.4574 -0.7298 0.5082
vn 0.6384 -0.7689 -0.0356
vn 0.6389 -0.7686 -0.0325
vn 0.6418 -0.7657 -0.0421
vn -0.3175 -0.7049 0.6343
vn -0.3176 -0.7041 0.6351
vn 0.1717 -0.7037 -0.6894
vn -0.0063 -0.6461 -0.7632
vn 0.6787 -0.7275 -0.1003
vn 0.6885 -0.7174 -0.1060
vn 0.6382 -0.7660 -0.0774
vn -0.0106 -0.6886 0.7251
vn -0.1245 -0.7037 -0.6995
vn 0.5232 -0.7416 -0.4198
vn 0.2198 -0.6972 0.6824
vn 0.2145 -0.6977 0.6836
vn 0.2139 -0.6985 0.6829
vn -0.9492 0.0320 -0.3131
vn 0.5150 0.0120 -0.8571
vn 0.9225 -0.0219 0.3853
vn -0.5949 -0.0194 0.8035
vn 0.1732 0.6366 -0.7515
vn 0.9725 -0.0204 0.2321
vn -0.7602 -0.0134 0.6495
vn -0.2750 0.0313 -0.9609
vn 0.9963 -0.0135 -0.0848
vn -0.5242 -0.0534 0.8499
vn 0.0374 0.0299 -0.9989
vn 0.9923 -0.0123 -0.1233
vn -0.0170 -0.0360 0.9992
vn -0.5900 0.0789 -0.8035
vn 0.3964 0.1287 0.9090
vn -0.7720 0.0860 -0.6298
vn 0.2739 -0.0211 0.9615
vn -0.9994 0.0345 -0.0066
vn -0.0371 0.9989 -0.0270
vn -0.0696 0.9955 0.0638
vn -0.0089 0.9998 -0.0150
vn 0.0038 0.9999 0.0156
vn -0.2036 0.9781 0.0424
vn -0.0897 0.9920 0.0884
vn -0.1343 0.9908 -0.0161
vn -0.1247 0.9921 0.0146
vn 0.0180 0.9998 -0.0042
vn -0.1780 0.9840 0.0071
vn -0.1591 0.9824 0.0981
vn -0.2882 0.9573 0.0227
vn -0.2981 0.9545 0.0115
vn -0.5396 0.8396 0.0622
vn -0.0186 0.9990 0.0397
vn -0.0190 0.9967 0.0789
vn -0.0079 0.9999 0.0069
vn -0.0060 0.9994 -0.0327
vn -0.0010 0.9992 -0.0392
vn 0.0272 0.9985 0.0470
vn 0.0759 0.9968 0.0252
vn 0.0935 0.9954 -0.0193
vn 0.0394 0.9982 -0.0453
vn 0.0296 0.9975 -0.0646
vn 0.5827 -0.6355 -0.5066
vn 0.7108 -0.6355 -0.3017
vn 0.7692 -0.6355 -0.0673
vn 0.7658 -0.6401 0.0609
vn 0.4651 -0.7224 0.5117
vn -0.2726 -0.5711 0.7743
vn 0.2137 -0.6399 0.7382
vn -0.3752 -0.6372 0.6732
vn -0.0228 -0.6157 0.7877
vn -0.7969 -0.4707 -0.3786
vn -0.6423 -0.6398 0.4221
vn -0.5849 -0.6172 -0.5263
vn -0.7910 -0.6093 -0.0551
vn 0.2031 -0.5178 -0.8311
vn -0.3574 -0.6311 -0.6885
vn -0.0000 1.0000 -0.0000
vn 0.3677 -0.6322 -0.6820
vn 0.9137 0.0274 0.4055
vn -0.0336 -0.6058 0.7949
vn -0.8915 -0.0248 -0.4523
vn -0.9961 -0.0168 0.0871
vn -0.9531 -0.0379 0.3004
vn -0.9665 -0.2529 0.0435
vn -0.1504 -0.7903 0.5940
vn -0.8576 -0.5109 -0.0595
vn -0.8906 -0.4546 -0.0079
vn -0.6276 -0.3054 0.7162
vn -0.5142 -0.0586 0.8557
vn 0.0833 -0.5234 -0.8480
vn 0.0831 -0.5253 -0.8469
vn 0.0832 -0.5246 -0.8473
vn -0.7542 -0.0357 0.6556
vn 0.8380 -0.4073 0.3630
vn -0.7943 -0.5845 -0.1656
vn 0.9911 0.0673 -0.1148
vn -0.5873 -0.7700 0.2493
vn -0.6614 -0.7500 0.0055
vn 0.3816 -0.2152 0.8989
vn -0.6922 -0.7172 -0.0799
vn -0.2273 -0.9457 0.2322
vn 0.1600 -0.6273 0.7621
vn 0.0809 -0.5420 0.8365
vn 0.0876 -0.5394 0.8375
vn 0.0902 -0.5384 0.8378
vn 0.4924 -0.4597 -0.7391
vn -0.8610 -0.4963 -0.1111
vn -0.0446 -0.8823 0.4686
vn -0.4063 -0.8584 -0.3131
vn 0.6225 -0.3112 0.7181
vn 0.2231 -0.6096 -0.7607
vn 0.7576 -0.3748 0.5343
vn 0.5855 -0.5816 -0.5647
vn -0.2947 -0.4981 0.8155
vn -0.1179 -0.9192 0.3756
vn 0.0739 -0.7668 0.6376
vn -0.1323 -0.2183 -0.9669
vn -0.8011 -0.5233 -0.2904
vn -0.9055 0.0338 -0.4230
vn 0.6888 -0.1820 0.7017
vn -0.8630 -0.4983 -0.0835
vn -0.6737 -0.6448 -0.3610
vn 0.3905 -0.0379 0.9198
vn 0.0206 -0.2622 0.9648
vn 0.7925 -0.5365 -0.2900
vn -0.2112 -0.2824 0.9358
vn 0.8201 -0.4572 -0.3441
vn -0.3370 -0.6355 -0.6947
vn 0.8547 -0.4632 -0.2344
vn 0.0844 -0.5149 -0.8531
vn -0.8935 -0.3994 0.2055
vn -0.5851 -0.0912 -0.8058
vn 0.5159 0.0071 -0.8566
vn 0.2170 -0.6639 -0.7156
vn 0.6471 -0.3899 0.6552
vn 0.5511 -0.5340 -0.6412
vn 0.0738 -0.5329 0.8430
vn 0.9504 -0.1689 -0.2612
vn -0.1099 -0.0879 -0.9900
vn -0.2953 -0.9274 0.2296
vn -0.8367 -0.4982 0.2272
vn 0.0796 -0.5425 0.8363
vn -0.5724 -0.4980 -0.6514
vn 0.8305 -0.5218 -0.1949
vn -0.1833 -0.5796 0.7940
vn -0.2023 -0.6267 0.7525
vn -0.3124 -0.6726 -0.6708
vn 0.8604 -0.5096 -0.0018
vn -0.6346 -0.6229 0.4575
vn -0.0765 -0.1846 -0.9798
vn 0.8419 -0.4724 0.2609
vn 0.7935 -0.5167 0.3216
vn -0.5379 -0.4815 0.6920
vn 0.4677 -0.4828 -0.7404
vn 0.6496 -0.6049 0.4604
vn -0.1093 -0.4912 -0.8642
vn -0.0525 -0.8732 0.4846
vn -0.5010 -0.7555 -0.4222
vn 0.0313 -0.5312 -0.8467
vn 0.0921 -0.8133 0.5746
vn -0.5193 -0.8458 -0.1225
vn 0.2086 -0.5608 0.8012
vn -0.4685 -0.8827 -0.0373
vn 0.4586 -0.8242 -0.3323
vt 0.300000 1.000000
vt 0.250000 1.000000
vt 0.700000 1.000000
vt 0.750000 1.000000
vt 0.650000 1.000000
vt 0.350000 1.000000
vt 0.400000 1.000000
vt 0.800000 1.000000
vt 0.450000 1.000000
vt -0.000000 1.000000
vt 0.050000 1.000000
vt 0.850000 1.000000
vt 0.500000 1.000000
vt 0.900000 1.000000
vt 0.550000 1.000000
vt 0.100000 1.000000
vt 0.200000 1.000000
vt 0.150000 1.000000
vt 0.950000 1.000000
vt 0.600000 1.000000
vt 1.000000 1.000000
vt 0.500000 1.000000
vt 0.458000 1.000000
vt 0.412000 1.000000
vt 0.542000 1.000000
vt 0.500000 1.000000
vt 0.368000 1.000000
vt 0.450000 1.000000
vt 0.588000 1.000000
vt 0.550000 1.000000
vt 0.500000 1.000000
vt 0.402000 1.000000
vt 0.650000 1.000000
vt 0.632000 1.000000
vt 0.598000 1.000000
vt 0.500000 0.500000
vt 0.756617 1.000000
vt 0.719553 1.000000
vt 0.432186 1.000000
vt 0.196096 1.000000
vt 0.122562 1.000000
vt 0.830748 1.000000
vt 0.485610 1.000000
vt 0.301285 1.000000
vt 0.240431 1.000000
vt 0.090160 1.000000
vt 0.829920 1.000000
vt 0.390541 1.000000
vt 0.296386 1.000000
vt 0.403009 1.000000
vt 0.697506 1.000000
vt 0.582500 1.000000
vt 0.119414 1.000000
vt 0.084131 1.000000
vt 0.686555 1.000000
vt 0.950000 1.000000
vt 0.198042 1.000000
vt 0.900000 1.000000
vt 0.850000 1.000000
s 1
usemtl bottom.001
f 94/36/222 78/21/222 80/19/222
f 94/36/223 80/19/223 82/14/223
f 94/36/224 82/14/224 84/12/224
f 94/36/225 84/12/225 87/37/225
f 94/36/226 87/37/226 112/38/226
f 94/36/227 112/38/227 90/5/227
f 94/36/228 90/5/228 114/20/228
f 94/36/229 114/20/229 93/15/229
f 94/36/230 93/15/230 95/13/230
f 94/36/231 95/13/231 116/39/231
f 94/36/232 116/39/232 99/6/232
f 94/36/233 99/6/233 101/1/233
f 94/36/234 101/1/234 102/2/234
f 94/36/235 102/2/235 105/40/235
f 94/36/236 105/40/236 119/41/236
f 82/14/237 108/19/237 110/14/237
f 94/36/238 119/41/238 78/10/238
f 87/37/239 111/42/239 112/38/239
f 93/15/240 115/43/240 95/13/240
f 102/2/241 101/1/241 118/2/241
f 78/10/237 120/11/237 109/10/237
f 84/12/242 110/14/242 111/42/242
f 80/19/237 109/21/237 108/19/237
f 99/6/243 116/39/243 117/6/243
f 95/13/244 115/43/244 116/39/244
f 93/15/245 114/20/245 115/43/245
f 123/14/237 136/19/237 138/14/237
f 117/6/246 132/7/246 149/44/246
f 117/6/247 149/44/247 101/1/247
f 118/2/248 133/45/248 105/40/248
f 115/43/249 129/15/249 130/13/249
f 119/41/250 134/18/251 153/46/252
f 115/43/253 130/13/253 131/9/253
f 111/42/254 124/12/254 139/47/254
f 148/48/255 159/49/255 149/44/255
f 130/13/237 145/15/237 146/13/237
f 124/12/256 138/14/256 139/47/256
f 131/9/237 146/13/237 147/9/237
f 132/7/257 147/9/257 148/48/257
f 125/4/237 140/8/237 141/4/237
f 132/7/258 148/48/258 149/44/258
f 126/3/237 141/4/237 142/3/237
f 127/5/259 142/3/259 143/5/259
f 133/45/260 149/44/260 150/2/260
f 128/20/237 143/5/237 144/20/237
f 121/19/237 137/21/237 136/19/237
f 129/15/237 144/20/237 145/15/237
f 158/50/261 89/9/261 88/7/261
f 142/3/262 155/51/262 143/5/262
f 143/5/263 156/52/264 144/20/265
f 152/53/266 161/54/266 153/46/266
f 148/48/267 158/50/267 159/49/267
f 156/52/268 96/20/268 92/15/268
f 159/49/269 85/1/269 83/2/269
f 155/51/270 100/4/270 98/3/270
f 161/54/271 77/16/271 162/11/271
f 82/14/237 80/19/237 108/19/237
f 139/47/272 125/4/272 112/38/272 111/42/272
f 135/11/273 122/10/273 109/10/273 120/11/273
f 90/5/274 112/38/274 113/55/274
f 78/10/275 119/41/275 120/11/275
f 84/12/237 82/14/237 110/14/237
f 90/5/276 113/55/276 114/20/276
f 80/19/237 78/21/237 109/21/237
f 105/40/277 102/2/277 118/2/277
f 87/37/278 84/12/278 111/42/278
f 101/1/279 99/6/279 117/6/279
f 123/14/237 121/19/237 136/19/237
f 126/3/280 113/55/280 112/38/280 125/4/280
f 117/6/281 116/39/281 132/7/281
f 149/44/282 133/45/282 118/2/282 101/1/282
f 113/55/283 126/3/283 127/5/283
f 128/20/284 114/20/284 113/55/284 127/5/284
f 122/21/285 121/19/285 108/19/285 109/21/285
f 129/15/286 115/43/286 114/20/286 128/20/286
f 121/19/287 123/14/287 110/14/287 108/19/287
f 134/18/288 119/41/288 105/40/288 133/45/288
f 124/12/289 111/42/289 110/14/289 123/14/289
f 135/11/290 120/11/290 119/41/250 153/46/252
f 132/7/291 116/39/291 115/43/291 131/9/291
f 151/17/292 152/53/292 134/18/292 133/45/292
f 153/46/293 137/10/293 122/10/293 135/11/293
f 130/13/237 129/15/237 145/15/237
f 124/12/237 123/14/237 138/14/237
f 153/46/294 134/18/294 152/53/294
f 131/9/237 130/13/237 146/13/237
f 132/7/237 131/9/237 147/9/237
f 125/4/295 139/47/295 140/8/295
f 107/56/296 136/19/296 137/21/296 106/21/296
f 126/3/237 125/4/237 141/4/237
f 127/5/237 126/3/237 142/3/237
f 128/20/297 127/5/297 143/5/297
f 121/19/298 122/21/298 137/21/298
f 133/45/299 150/2/299 151/17/299
f 129/15/237 128/20/237 144/20/237
f 89/9/300 158/50/300 157/13/300 91/13/300
f 150/2/301 149/44/301 159/49/301
f 143/5/263 155/51/302 156/52/264
f 160/57/303 151/17/303 150/2/303 159/49/303
f 104/58/304 138/14/304 136/19/304 107/56/304
f 145/15/305 144/20/305 156/52/305
f 156/52/306 157/13/306 146/13/306 145/15/306
f 152/53/307 151/17/307 160/57/307
f 104/58/308 103/59/308 139/47/308 138/14/308
f 158/50/309 147/9/309 146/13/309 157/13/309
f 152/53/310 160/57/310 161/54/310
f 154/8/311 140/8/311 139/47/311 103/59/311
f 100/4/312 141/4/312 140/8/312 154/8/312
f 148/48/313 147/9/313 158/50/313
f 106/10/314 137/10/314 153/46/314 161/54/314
f 100/4/315 155/51/315 142/3/315 141/4/315
f 79/18/316 77/16/316 161/54/316 160/57/316
f 92/15/317 91/13/317 157/13/317 156/52/317
f 83/2/318 81/17/318 160/57/318 159/49/318
f 160/57/319 81/17/319 79/18/319
f 97/5/320 96/20/320 156/52/320 155/51/320
f 86/6/321 159/49/321 158/50/321 88/7/321
f 155/51/322 98/3/322 97/5/322
f 159/49/323 86/6/323 85/1/323
f 106/10/324 161/54/324 162/11/324
usemtl top.001
f 5/1/1 24/2/2 4/2/3
f 33/3/4 56/4/5 55/3/6
f 13/3/7 32/5/8 12/5/9
f 5/1/10 26/6/10 25/1/10
f 14/4/11 33/3/12 13/3/13
f 7/7/14 26/6/15 6/6/16
f 14/4/17 35/8/17 34/4/17
f 7/7/18 28/9/18 27/7/18
f 18/10/19 40/11/19 38/10/19
f 16/12/20 35/8/21 15/8/22
f 9/13/23 28/9/24 8/9/25
f 16/12/26 37/14/27 36/12/26
f 10/15/28 29/13/29 9/13/29
f 20/11/30 21/16/30 40/11/30
f 3/17/31 22/18/32 2/18/33
f 19/19/34 37/14/35 17/14/36
f 10/15/37 31/20/38 30/15/39
f 1/16/40 22/18/41 21/16/42
f 4/2/43 23/17/43 3/17/43
f 19/19/44 38/21/45 39/19/46
f 11/20/47 32/5/48 31/20/47
f 27/7/49 48/6/50 26/6/51
f 38/10/52 42/11/53 41/10/54
f 34/4/55 57/8/56 56/4/57
f 28/9/58 49/7/59 27/7/60
f 40/11/61 43/16/62 42/11/63
f 35/8/64 58/12/65 57/8/66
f 29/13/67 50/9/68 28/9/69
f 21/16/70 44/18/71 43/16/72
f 36/12/73 59/14/74 58/12/75
f 30/15/76 51/13/77 29/13/78
f 23/17/79 44/18/80 22/18/81
f 39/19/82 59/14/83 37/14/84
f 30/15/85 53/20/86 52/15/87
f 24/2/88 45/17/89 23/17/90
f 39/19/91 41/21/92 60/19/91
f 31/20/93 54/5/94 53/20/95
f 25/1/96 46/2/97 24/2/98
f 33/3/99 54/5/100 32/5/101
f 26/6/102 47/1/103 25/1/104
f 61/22/105 51/13/105 52/15/105
f 65/23/106 50/9/106 61/22/106
f 65/23/107 48/6/107 49/7/107
f 69/24/108 47/1/108 48/6/108
f 73/6/109 46/2/110 47/1/111
f 62/25/112 52/15/113 53/20/114
f 66/26/115 61/22/116 62/25/112
f 66/26/117 69/24/118 65/23/119
f 74/27/120 69/24/121 70/28/122
f 74/27/123 45/17/124 73/6/125
f 54/5/126 62/25/126 53/20/126
f 63/29/127 66/26/127 62/25/127
f 67/30/128 70/28/128 66/26/128
f 71/31/129 74/27/129 70/28/129
f 75/32/130 44/18/131 74/27/132
f 55/3/133 63/29/133 54/5/133
f 64/33/134 67/30/134 63/29/134
f 68/34/135 71/31/136 67/30/137
f 76/13/138 71/31/138 72/35/138
f 42/11/139 75/32/139 76/13/139
f 56/4/140 64/33/140 55/3/140
f 57/8/141 68/34/141 64/33/141
f 58/12/142 72/35/142 68/34/142
f 60/19/143 72/35/143 59/14/143
f 41/10/144 76/13/144 60/19/144
f 5/1/1 25/1/145 24/2/2
f 33/3/4 34/4/146 56/4/5
f 13/3/147 33/3/148 32/5/149
f 5/1/150 6/6/150 26/6/150
f 14/4/11 34/4/151 33/3/12
f 7/7/152 27/7/153 26/6/154
f 14/4/155 15/8/155 35/8/155
f 7/7/156 8/9/156 28/9/156
f 18/10/157 20/11/157 40/11/157
f 16/12/158 36/12/159 35/8/160
f 9/13/161 29/13/162 28/9/163
f 16/12/164 17/14/165 37/14/166
f 10/15/167 30/15/167 29/13/168
f 20/11/169 1/16/169 21/16/169
f 3/17/31 23/17/170 22/18/32
f 19/19/171 39/19/172 37/14/173
f 10/15/37 11/20/174 31/20/38
f 1/16/40 2/18/175 22/18/41
f 4/2/43 24/2/43 23/17/43
f 19/19/44 18/21/176 38/21/45
f 11/20/177 12/5/178 32/5/179
f 27/7/49 49/7/180 48/6/50
f 38/10/52 40/11/181 42/11/53
f 34/4/55 35/8/182 57/8/56
f 28/9/58 50/9/183 49/7/59
f 40/11/61 21/16/184 43/16/62
f 35/8/64 36/12/185 58/12/65
f 29/13/67 51/13/186 50/9/68
f 21/16/70 22/18/187 44/18/71
f 36/12/73 37/14/188 59/14/74
f 30/15/76 52/15/189 51/13/77
f 23/17/79 45/17/190 44/18/80
f 39/19/82 60/19/191 59/14/83
f 30/15/85 31/20/192 53/20/86
f 24/2/88 46/2/193 45/17/89
f 39/19/91 38/21/91 41/21/92
f 31/20/93 32/5/194 54/5/94
f 25/1/96 47/1/195 46/2/97
f 33/3/99 55/3/196 54/5/100
f 26/6/102 48/6/197 47/1/103
f 61/22/198 50/9/198 51/13/198
f 65/23/199 49/7/199 50/9/199
f 65/23/200 69/24/200 48/6/200
f 69/24/201 73/6/201 47/1/201
f 73/6/109 45/17/202 46/2/110
f 62/25/112 61/22/116 52/15/113
f 66/26/117 65/23/119 61/22/203
f 66/26/204 70/28/122 69/24/121
f 74/27/205 73/6/205 69/24/205
f 74/27/123 44/18/206 45/17/124
f 54/5/207 63/29/207 62/25/207
f 63/29/208 67/30/208 66/26/208
f 67/30/137 71/31/136 70/28/209
f 71/31/210 75/32/130 74/27/132
f 75/32/211 43/16/211 44/18/211
f 55/3/212 64/33/212 63/29/212
f 64/33/213 68/34/213 67/30/213
f 68/34/214 72/35/214 71/31/214
f 76/13/215 75/32/215 71/31/215
f 42/11/216 43/16/216 75/32/216
f 56/4/217 57/8/217 64/33/217
f 57/8/218 58/12/218 68/34/218
f 58/12/219 59/14/219 72/35/219
f 60/19/220 76/13/220 72/35/220
f 41/10/221 42/11/221 76/13/221
