# Blender 4.0.2
# www.blender.org
mtllib world-forest-organic-water-obj.mtl
o Island_Grass.006
v -10.928740 0.111114 3.953986
v 11.420515 0.154885 1.305101
v -11.503668 0.051743 -1.110170
v 10.896009 -0.016089 -3.841778
v -10.926479 -7.651633 3.950278
v -11.534729 -7.637255 -1.059215
v 11.448887 -8.897732 1.258557
v 10.894194 -9.001893 -3.838799
v -11.240490 0.135180 1.461750
v 11.152948 0.081163 -1.259618
v -11.170637 -7.777166 1.347155
v 11.133123 -8.864782 -1.227095
v -10.882248 -5.163611 3.877717
v -10.936697 -2.457191 3.967039
v -11.527494 -2.481439 -1.071084
v -11.496494 -5.135965 -1.121941
v -11.222092 -2.491455 1.431567
v -11.243645 -5.029671 1.466922
v 10.859554 -5.928619 -3.781972
v 10.834448 -2.876445 -3.740785
v 11.460484 -2.930185 1.239531
v 11.440176 -5.881846 1.272846
v 11.131748 -2.868526 -1.224840
v 11.198780 -6.013494 -1.334809
v -7.195966 0.100932 3.499551
v -3.454815 0.076500 3.030150
v 0.289788 0.059757 2.550738
v 3.994077 0.089580 2.149229
v 7.714389 0.102403 1.715837
v 7.089292 0.028573 -3.274088
v 3.412313 -0.212855 -2.934233
v -0.350196 0.116315 -2.400541
v -4.054698 0.068061 -1.991851
v -7.760443 0.018423 -1.581756
v 7.429685 0.013495 -0.820544
v 3.698830 0.019736 -0.371332
v 0.007617 -0.005565 0.016763
v -3.794864 0.158899 0.585554
v -7.498273 0.104096 0.991821
v -10.771397 0.075252 3.934939
v 11.265820 0.118465 1.324418
v -11.349070 0.015263 -1.127438
v 10.724518 -0.048486 -3.821154
v -10.702789 -7.651559 3.923455
v -11.311045 -7.637166 -1.086068
v 11.225183 -8.897604 1.285251
v 10.670496 -9.001822 -3.812048
v -11.085625 0.098759 1.443710
v 10.992744 0.045960 -1.239997
v -10.946951 -7.777084 1.320317
v 10.909422 -8.864683 -1.200373
v -10.658566 -5.163532 3.850841
v -10.713013 -2.457135 3.940173
v -11.303791 -2.481434 -1.097797
v -11.272799 -5.135908 -1.148719
v -10.998398 -2.491424 1.404778
v -11.019955 -5.029603 1.440095
v 10.635866 -5.928687 -3.755145
v 10.610756 -2.876450 -3.713991
v 11.236788 -2.930257 1.266297
v 11.216475 -5.881837 1.299560
v 10.908052 -2.868565 -1.198061
v 10.975084 -6.013518 -1.308039
v -7.197207 0.050476 3.499095
v -3.466819 0.026013 3.030821
v 0.285513 0.009352 2.551188
v 4.004493 0.039191 2.148455
v 7.719478 0.052167 1.716025
v 7.090070 -0.019711 -3.274053
v 3.419455 -0.259900 -2.935368
v -0.361102 0.066374 -2.399631
v -4.054928 0.017607 -1.991093
v -7.757607 -0.032005 -1.580390
v 7.432413 -0.036055 -0.820376
v 3.707842 -0.029646 -0.372260
v -0.000069 -0.055995 0.017462
v -3.801563 0.108462 0.586307
v -7.497388 0.053640 0.992291
vn -0.0172 0.9998 0.0085
vn -0.9947 -0.0307 0.0984
vn -0.9947 -0.0307 0.0979
vn -0.9950 -0.0306 0.0953
vn 0.9914 -0.0277 -0.1283
vn 0.9916 -0.0276 -0.1263
vn 0.9903 -0.0279 -0.1362
vn 0.9957 0.0129 -0.0918
vn -0.9885 0.0219 0.1494
vn -0.0177 0.9995 -0.0276
vn -0.0215 0.9993 -0.0320
vn -0.0220 0.9992 -0.0326
vn -0.9923 0.0037 0.1242
vn -0.9888 -0.0247 0.1469
vn -0.9947 -0.0081 0.1021
vn -0.9946 -0.0082 0.1034
vn -0.9938 -0.0082 0.1106
vn -0.9926 0.0103 0.1212
vn -0.9932 0.0101 0.1164
vn -0.9925 0.0114 0.1218
vn 0.9949 -0.0249 -0.0981
vn 0.9905 0.0100 -0.1370
vn 0.9912 -0.0087 -0.1324
vn 0.9912 -0.0084 -0.1324
vn 0.9912 -0.0086 -0.1324
vn 0.9953 0.0245 -0.0934
vn 0.0043 1.0000 0.0082
vn 0.0078 1.0000 0.0012
vn 0.0038 1.0000 0.0092
vn -0.0145 0.9999 0.0030
vn 0.0086 0.9994 0.0325
vn 0.0096 0.9994 0.0324
vn -0.0108 0.9996 -0.0262
vn -0.0102 0.9996 -0.0253
vn -0.0095 0.9996 -0.0247
vn -0.0046 0.9995 -0.0328
vn -0.0023 0.9996 -0.0282
vn 0.0042 0.9994 -0.0330
vn 0.0046 0.9994 -0.0336
vn 0.0042 0.9995 -0.0329
vn -0.0183 0.9993 -0.0332
vn -0.0170 0.9994 -0.0317
vn -0.0169 0.9994 -0.0315
vn 0.0376 0.9986 -0.0374
vn 0.0374 0.9985 -0.0390
vn 0.0385 0.9988 -0.0316
vn -0.0015 0.9987 0.0506
vn -0.0021 0.9987 0.0507
vn -0.0067 0.9987 0.0513
vn -0.0728 0.9940 -0.0821
vn 0.0219 -0.9997 -0.0097
vn 0.9947 0.0307 -0.0980
vn 0.9947 0.0307 -0.0984
vn 0.9950 0.0306 -0.0953
vn -0.9957 -0.0033 0.0923
vn -0.9900 0.0280 0.1382
vn -0.9903 0.0280 0.1363
vn -0.9914 0.0277 0.1283
vn 0.9885 -0.0219 -0.1494
vn 0.0220 -0.9994 0.0265
vn 0.0262 -0.9992 0.0312
vn 0.0216 -0.9994 0.0260
vn 0.9919 0.0226 -0.1249
vn 0.9937 -0.0100 -0.1117
vn 0.9932 -0.0101 -0.1164
vn 0.9931 -0.0101 -0.1165
vn 0.9939 0.0350 -0.1042
vn 0.9941 0.0350 -0.1030
vn 0.9932 0.0351 -0.1110
vn 0.9926 -0.0101 -0.1212
vn -0.9939 0.0438 0.1017
vn -0.9928 -0.0253 0.1174
vn -0.9944 0.0075 0.1057
vn -0.9912 0.0083 0.1324
vn -0.0121 -0.9999 -0.0006
vn -0.0084 -0.9999 -0.0076
vn -0.0080 -0.9999 -0.0084
vn -0.0106 -0.9994 -0.0323
vn -0.0096 -0.9994 -0.0324
vn -0.0086 -0.9994 -0.0325
vn 0.0107 -0.9996 0.0259
vn 0.0103 -0.9996 0.0251
vn 0.0045 -0.9995 0.0325
vn 0.0022 -0.9996 0.0279
vn 0.0074 -0.9994 0.0339
vn -0.0086 -0.9994 0.0336
vn -0.0087 -0.9994 0.0338
vn -0.0084 -0.9994 0.0333
vn 0.0183 -0.9993 0.0332
vn 0.0171 -0.9994 0.0318
vn 0.0185 -0.9993 0.0334
vn -0.0374 -0.9985 0.0389
vn -0.0376 -0.9986 0.0373
vn -0.0385 -0.9988 0.0317
vn 0.0024 -0.9987 -0.0509
vn 0.0018 -0.9987 -0.0508
vn 0.0068 -0.9986 -0.0516
vn -0.0025 -1.0000 -0.0063
vn 0.1091 0.0630 0.9920
vn -0.1253 -0.0623 -0.9902
vn 0.0061 -0.9988 0.0476
vn 0.0060 -0.9988 0.0476
vn 0.1207 0.0047 0.9927
vn 0.1200 0.0046 0.9928
vn 0.1209 0.0034 0.9927
vn -0.1188 -0.0230 -0.9926
vn -0.1191 -0.0231 -0.9926
vn -0.1192 -0.0231 -0.9926
vn 0.0058 -0.9986 0.0519
vn 0.0059 -0.9986 0.0519
vn -0.1148 -0.0327 -0.9928
vn -0.1173 -0.0328 -0.9926
vn -0.1133 -0.0326 -0.9930
vn 0.1186 -0.0044 0.9929
vn 0.1185 -0.0044 0.9929
vn -0.0065 -0.9983 -0.0571
vn -0.0020 -0.9999 -0.0130
vn -0.0021 -0.9999 -0.0130
vn 0.1189 0.0268 0.9925
vn 0.1190 0.0268 0.9925
vn 0.1192 0.0268 0.9925
vn 0.1192 -0.0304 0.9924
vn -0.1155 -0.0142 -0.9932
vn -0.1174 -0.0140 -0.9930
vn -0.1186 -0.0139 -0.9928
vn -0.1188 0.0177 -0.9928
vn -0.1186 0.0176 -0.9928
vn -0.1187 0.0170 -0.9928
vn -0.1189 0.0124 -0.9928
vn 0.1257 -0.0196 0.9919
vn 0.1215 -0.0199 0.9924
vn 0.1188 -0.0201 0.9927
vn 0.1186 0.0104 0.9929
vn 0.1185 0.0104 0.9929
vn 0.1227 -0.0120 0.9924
vn 0.1210 -0.0119 0.9926
vn 0.1238 -0.0149 0.9922
vn 0.1248 -0.0139 0.9921
vn 0.1267 -0.0170 0.9918
vn 0.1268 -0.0019 0.9919
vn 0.1077 0.0049 0.9942
vn 0.1087 0.0026 0.9941
vn 0.1152 0.0086 0.9933
vn 0.1096 0.0148 0.9939
vn 0.1156 0.0154 0.9932
vn 0.1154 0.0154 0.9932
vn -0.1489 -0.0031 -0.9889
vn -0.0921 0.0013 -0.9958
vn -0.0923 0.0065 -0.9957
vn -0.0925 0.0100 -0.9957
vn -0.1396 0.0095 -0.9902
vn -0.1399 0.0055 -0.9902
vn -0.1394 0.0124 -0.9902
vn -0.1098 -0.0144 -0.9939
vn -0.1097 -0.0144 -0.9939
vn -0.1097 -0.0331 -0.9934
vn 0.0060 0.9993 -0.0382
vn -0.9884 0.0189 0.1506
vn 0.9957 0.0033 -0.0923
vn 0.9900 -0.0280 -0.1382
vn -0.9950 -0.0306 0.0948
vn -0.0171 0.9995 -0.0269
vn -0.9937 -0.0082 0.1120
vn -0.9937 0.0100 0.1117
vn -0.9926 0.0112 0.1212
vn -0.9951 -0.0135 0.0977
vn 0.9931 -0.0085 -0.1173
vn 0.9928 0.0253 -0.1174
vn 0.9944 0.0151 -0.1042
vn 0.9912 -0.0083 -0.1324
vn 0.0083 1.0000 0.0003
vn 0.0106 0.9994 0.0322
vn 0.0387 0.9988 -0.0301
vn -0.0074 0.9994 -0.0342
vn 0.0046 0.9994 -0.0337
vn -0.0184 0.9993 -0.0334
vn -0.0073 0.9986 0.0514
vn 0.0729 0.9925 -0.0982
vn 0.0024 1.0000 0.0058
vn -0.0024 -0.9993 0.0368
vn 0.9884 -0.0189 -0.1506
vn -0.9916 0.0276 0.1263
vn -0.9957 -0.0129 0.0918
vn 0.9950 0.0306 -0.0948
vn 0.0268 -0.9991 0.0317
vn 0.9931 0.0351 -0.1123
vn 0.9888 0.0247 -0.1469
vn 0.9925 0.0166 -0.1211
vn 0.9951 0.0135 -0.0977
vn -0.9926 0.0305 0.1172
vn -0.9905 -0.0100 0.1370
vn -0.9907 0.0307 0.1329
vn -0.9953 -0.0245 0.0934
vn -0.0125 -0.9999 0.0002
vn 0.0145 -0.9999 -0.0030
vn -0.0387 -0.9988 0.0301
vn 0.0097 -0.9996 0.0247
vn -0.0088 -0.9994 0.0342
vn 0.0169 -0.9994 0.0316
vn 0.0075 -0.9986 -0.0517
vn -0.0719 -0.9927 0.0973
vn 0.0725 -0.9941 0.0811
vn 0.1095 0.0148 0.9939
vn -0.1255 -0.0339 -0.9915
vn 0.1192 0.0048 0.9929
vn -0.1189 -0.0328 -0.9924
vn 0.1193 -0.0304 0.9924
vn -0.1143 -0.0143 -0.9933
vn 0.1284 -0.0194 0.9915
vn 0.1188 0.0104 0.9929
vn 0.1209 0.0030 0.9927
vn 0.1269 -0.0170 0.9918
vn 0.1077 -0.0003 0.9942
vn 0.1157 0.0087 0.9932
vn -0.1444 0.1409 -0.9794
vn -0.0919 -0.0022 -0.9958
vn -0.1401 0.0026 -0.9901
vn -0.1097 0.0058 -0.9939
vn -0.1098 -0.0144 -0.9938
vt 1.000000 0.500000
vt 0.833333 1.000000
vt 0.833333 0.500000
vt 0.000000 1.000000
vt 0.000000 0.500000
vt 1.000000 0.000000
vt 1.000000 1.000000
vt 0.000000 0.000000
vt 0.833333 0.000000
vt 0.166667 0.000000
vt 0.333333 0.500000
vt 0.166667 0.500000
vt 0.500000 0.000000
vt 0.333333 0.000000
vt 0.666667 0.500000
vt 0.500000 0.500000
vt 0.666667 0.000000
vt 0.333333 1.000000
vt 0.166667 1.000000
vt 0.500000 1.000000
vt 0.666667 1.000000
s 1
usemtl Material.003
f 10/1/1 30/2/1 35/3/1
f 16/4/2 11/5/3 18/5/4
f 24/1/5 7/6/6 12/1/7
f 19/7/8 12/1/8 8/7/8
f 18/5/9 5/8/9 13/8/9
f 29/9/10 10/1/11 35/3/12
f 9/5/13 14/8/13 1/8/13
f 14/8/14 18/5/14 13/8/14
f 3/4/15 17/5/16 9/5/17
f 15/4/18 18/5/19 17/5/20
f 10/1/21 20/7/21 4/7/21
f 20/7/22 24/1/22 19/7/22
f 10/1/23 21/6/24 23/1/25
f 23/1/26 22/6/26 24/1/26
f 25/10/27 9/5/28 1/8/29
f 25/10/30 38/11/30 39/12/30
f 27/13/31 38/11/32 26/14/32
f 27/13/33 36/15/34 37/16/35
f 28/17/36 35/3/37 36/15/34
f 39/12/38 3/4/39 9/5/40
f 39/12/41 33/18/42 34/19/43
f 37/16/44 33/18/45 38/11/46
f 36/15/47 32/20/48 37/16/49
f 36/15/50 30/2/50 31/21/50
f 69/2/51 49/1/51 74/3/51
f 50/5/52 55/4/53 57/5/54
f 63/1/55 46/6/55 61/6/55
f 58/7/56 51/1/57 63/1/58
f 44/8/59 57/5/59 52/8/59
f 68/9/60 49/1/61 41/6/62
f 53/8/63 48/5/63 40/8/63
f 53/8/64 57/5/65 56/5/66
f 56/5/67 42/4/68 48/5/69
f 57/5/65 54/4/70 56/5/66
f 59/7/71 49/1/71 43/7/71
f 59/7/72 63/1/72 62/1/72
f 49/1/73 60/6/73 41/6/73
f 62/1/74 61/6/74 60/6/74
f 48/5/75 64/10/76 40/8/77
f 64/10/78 77/11/79 65/14/79
f 77/11/79 66/13/80 65/14/79
f 66/13/81 75/15/82 67/17/83
f 67/17/83 74/3/84 68/9/85
f 42/4/86 78/12/87 48/5/88
f 78/12/89 72/18/90 77/11/91
f 72/18/92 76/16/93 77/11/94
f 71/20/95 75/15/96 76/16/97
f 75/15/98 69/2/98 74/3/98
f 29/9/99 41/6/99 2/6/99
f 34/19/100 42/4/100 3/4/100
f 11/5/101 44/8/102 5/8/102
f 14/8/103 40/8/104 1/8/105
f 16/4/106 45/4/107 6/4/108
f 12/1/109 47/7/110 8/7/110
f 20/7/111 43/7/112 4/7/113
f 22/6/114 46/6/115 7/6/115
f 11/5/116 45/4/116 50/5/116
f 12/1/117 46/6/118 51/1/117
f 13/8/119 44/8/120 52/8/121
f 13/8/122 53/8/122 14/8/122
f 15/4/123 42/4/124 54/4/125
f 16/4/126 54/4/127 55/4/126
f 19/7/128 47/7/128 58/7/129
f 20/7/129 58/7/129 59/7/129
f 21/6/130 41/6/131 60/6/132
f 22/6/133 60/6/134 61/6/133
f 25/10/135 40/8/136 64/10/137
f 26/14/138 64/10/137 65/14/139
f 27/13/140 65/14/140 66/13/140
f 27/13/141 67/17/142 28/17/143
f 29/9/144 67/17/145 68/9/146
f 30/2/147 43/7/147 69/2/147
f 31/21/148 69/2/149 70/21/150
f 31/21/151 71/20/152 32/20/153
f 33/18/154 71/20/155 72/18/154
f 34/19/156 72/18/156 73/19/156
f 10/1/157 4/7/157 30/2/157
f 16/4/158 6/4/158 11/5/158
f 24/1/159 22/6/159 7/6/159
f 19/7/160 24/1/5 12/1/7
f 18/5/4 11/5/3 5/8/161
f 29/9/10 2/6/162 10/1/11
f 9/5/17 17/5/16 14/8/163
f 14/8/164 17/5/20 18/5/19
f 3/4/165 15/4/18 17/5/20
f 15/4/166 16/4/166 18/5/166
f 10/1/167 23/1/167 20/7/167
f 20/7/168 23/1/168 24/1/168
f 10/1/169 2/6/169 21/6/169
f 23/1/25 21/6/24 22/6/170
f 25/10/27 39/12/171 9/5/28
f 25/10/172 26/14/32 38/11/32
f 27/13/173 37/16/44 38/11/46
f 27/13/33 28/17/36 36/15/34
f 28/17/36 29/9/174 35/3/37
f 39/12/38 34/19/175 3/4/39
f 39/12/41 38/11/176 33/18/42
f 37/16/49 32/20/48 33/18/177
f 36/15/178 31/21/178 32/20/178
f 36/15/179 35/3/179 30/2/179
f 69/2/180 43/7/180 49/1/180
f 50/5/181 45/4/181 55/4/181
f 63/1/58 51/1/57 46/6/182
f 58/7/183 47/7/183 51/1/183
f 44/8/184 50/5/52 57/5/54
f 68/9/60 74/3/185 49/1/61
f 53/8/186 56/5/67 48/5/69
f 53/8/187 52/8/187 57/5/187
f 56/5/188 54/4/188 42/4/188
f 57/5/189 55/4/189 54/4/189
f 59/7/190 62/1/190 49/1/190
f 59/7/191 58/7/191 63/1/191
f 49/1/192 62/1/192 60/6/192
f 62/1/193 63/1/193 61/6/193
f 48/5/75 78/12/194 64/10/76
f 64/10/195 78/12/195 77/11/195
f 77/11/94 76/16/93 66/13/196
f 66/13/81 76/16/197 75/15/82
f 67/17/83 75/15/82 74/3/84
f 42/4/86 73/19/198 78/12/87
f 78/12/89 73/19/199 72/18/90
f 72/18/200 71/20/95 76/16/97
f 71/20/201 70/21/201 75/15/201
f 75/15/202 70/21/202 69/2/202
f 29/9/144 68/9/146 41/6/203
f 34/19/204 73/19/204 42/4/204
f 11/5/101 50/5/101 44/8/102
f 14/8/103 53/8/205 40/8/104
f 16/4/106 55/4/106 45/4/107
f 12/1/109 51/1/109 47/7/110
f 20/7/111 59/7/206 43/7/112
f 22/6/114 61/6/114 46/6/115
f 11/5/116 6/4/116 45/4/116
f 12/1/117 7/6/118 46/6/118
f 13/8/119 5/8/120 44/8/120
f 13/8/122 52/8/207 53/8/122
f 15/4/123 3/4/208 42/4/124
f 16/4/126 15/4/127 54/4/127
f 19/7/128 8/7/128 47/7/128
f 20/7/129 19/7/128 58/7/129
f 21/6/130 2/6/209 41/6/131
f 22/6/133 21/6/210 60/6/134
f 25/10/211 1/8/105 40/8/104
f 26/14/138 25/10/135 64/10/137
f 27/13/212 26/14/138 65/14/139
f 27/13/141 66/13/213 67/17/142
f 29/9/214 28/17/143 67/17/142
f 30/2/215 4/7/215 43/7/215
f 31/21/148 30/2/216 69/2/149
f 31/21/151 70/21/217 71/20/152
f 33/18/218 32/20/218 71/20/218
f 34/19/219 33/18/154 72/18/154
